<svg width="50" height="77" viewBox="0 0 50 77" fill="none" xmlns="http://www.w3.org/2000/svg">
<path d="M49.5335 33.6957H48.8895C48.4105 31.1011 46.7167 28.9053 44.6304 27.1083C42.5442 25.3062 40.1439 23.9888 37.435 23.1609C34.7261 22.3331 32.1981 21.9191 29.8405 21.9191C26.6259 21.9191 23.6083 22.5601 20.7877 23.8473C17.967 25.1295 15.5295 26.9417 13.4805 29.2839C11.4315 31.6261 9.83489 34.4327 8.69597 37.7087C7.55705 40.9898 6.9876 44.5486 6.9876 48.39C6.9876 52.1102 7.53577 55.5579 8.63743 58.738C9.73909 61.9232 11.3464 64.6844 13.4592 67.0215C15.5721 69.3637 18.0255 71.1355 20.8089 72.3318C23.5924 73.5332 26.6792 74.1339 30.0693 74.1339C32.906 74.1339 36.0194 73.5887 39.4095 72.4984C42.7996 71.403 46.0681 69.3828 48.7983 66.8387V68.8882C45.4348 71.3616 42.1503 73.3767 39.351 74.5326C36.5569 75.6836 33.0709 76.2591 28.8931 76.2591C24.4918 76.2591 20.4737 75.4968 16.8387 73.9724C13.2091 72.4479 10.1383 70.3884 7.63157 67.7988C5.12489 65.2043 3.23023 62.2866 1.93697 59.0459C0.649037 55.8052 -0.000244141 52.4686 -0.000244141 49.0361C-0.000244141 43.8721 1.34091 39.0767 4.02854 34.6498C6.71086 30.2228 10.3405 26.7146 14.9228 24.1351C19.505 21.5557 24.4758 20.2634 29.8405 20.2634C33.1561 20.2634 36.6899 20.7329 40.4366 21.6667L44.3856 22.7116C45.1413 22.858 45.7906 22.9287 46.3175 22.9287C47.3074 22.9287 47.9673 22.7924 48.292 22.5148C48.622 22.2371 48.8774 21.7424 49.0531 21.0206H49.6598L49.5335 33.6957Z" fill="#1B3700"/>
<path d="M27.5003 50.1295L25.973 50.0889C25.973 50.0889 25.2821 57.7662 25.2457 59.7973C25.2094 60.6503 25.3912 61.7471 25.6821 62.3158C25.973 62.8439 26.3367 63.2094 26.7731 63.3719C27.2094 63.4938 27.7549 63.6157 28.4822 63.6157V64.1437H16.191V63.575C17.5729 63.575 18.4456 63.2501 18.8456 62.5595C19.2093 61.869 19.3184 60.7316 19.4275 59.7973C19.7911 56.6289 20.9911 43.3864 20.9911 43.3864C20.9184 40.7867 20.3002 42.4928 18.3365 41.9647C16.4092 41.4773 14.8819 39.1619 15.6092 36.7246C16.7001 33.1906 20.4093 32.2563 20.7002 32.5813C21.3911 33.5156 20.882 33.6374 20.882 33.6374C16.591 34.9373 16.7365 39.1212 19.682 38.6338C21.9366 38.2682 25.7548 35.5466 28.8822 34.6529C32.4823 33.6374 37.2823 33.4343 39.1733 37.7401C39.7188 38.9994 40.046 40.6242 40.046 42.0866C40.046 43.2646 39.8279 44.3207 39.3551 45.255C38.9187 46.1893 38.3005 46.9205 37.5369 47.5298C36.7732 48.1391 35.9369 48.5859 34.9914 48.9109C36.2278 49.7639 37.3914 51.2669 38.5551 53.4604L41.6824 59.3911C42.1915 60.4066 42.737 61.1784 43.137 61.7471C43.5734 62.3158 44.0098 62.9657 44.337 63.1688C44.6279 63.4126 45.0643 63.4532 45.4643 63.5344V64.1844H37.1733C36.3369 62.5189 35.5732 60.8534 35.1369 59.8785C33.755 56.832 32.7368 54.6791 32.0822 53.501C31.4641 52.323 30.7731 51.47 30.1186 50.9419C29.4276 50.4139 28.5549 50.1295 27.5003 50.1295ZM32.3004 38.3901C30.4822 37.8214 26.5912 39.9337 26.5912 39.9337L26.0821 48.5047C26.0821 48.5047 29.864 48.3422 31.1368 47.7329C31.7913 47.4079 35.2823 46.2705 34.9187 42.2897C34.7005 39.5275 33.6459 38.7963 32.3004 38.3901Z" fill="#1B3700"/>
<path d="M43.6596 5.66985C42.5648 5.65263 41.6887 4.76436 41.7028 3.68583C41.717 2.60731 42.616 1.74695 43.7109 1.76417C44.8057 1.78139 45.6818 2.66967 45.6677 3.74819C45.6535 4.82671 44.7545 5.68707 43.6596 5.66985Z" fill="#1B3700"/>
<path d="M29.7665 4.15862C28.6716 4.1414 27.7955 3.25313 27.8097 2.1746C27.8239 1.09608 28.7229 0.23572 29.8178 0.25294C30.9126 0.270159 31.7887 1.15843 31.7746 2.23696C31.7604 3.31548 30.8614 4.17584 29.7665 4.15862Z" fill="#1B3700"/>
<path d="M15.1494 4.1928C14.0545 4.17558 13.1784 3.2873 13.1926 2.20878C13.2067 1.13025 14.1058 0.269899 15.2006 0.287119C16.2955 0.304338 17.1716 1.19261 17.1574 2.27114C17.1433 3.34966 16.2442 4.21002 15.1494 4.1928Z" fill="#1B3700"/>
<path fill-rule="evenodd" clip-rule="evenodd" d="M29.4601 6.8161C29.4793 6.57065 29.6927 6.38232 29.9478 6.38584C30.203 6.38913 30.4123 6.58332 30.4262 6.82948C30.4262 6.82948 30.5757 9.51589 31.6991 11.6959C32.3977 13.0513 33.4775 14.2248 35.2084 14.2789C36.7851 14.328 38.1429 13.4776 39.2503 12.3963C41.0035 10.6843 42.1333 8.37068 42.4569 7.68716C42.525 7.54344 42.567 7.45806 42.5772 7.44146C42.6896 7.25884 42.8395 7.23415 42.8797 7.22466C43.0604 7.18242 43.2069 7.22912 43.3274 7.33369C43.3912 7.38893 43.5015 7.50868 43.4968 7.73113C43.4909 8.00504 42.9883 9.52998 42.7617 10.3155C42.2859 11.9645 40.9632 18.0826 40.9632 18.0826C40.9126 18.3167 40.6871 18.4754 40.4407 18.4505L39.4414 18.3497C39.3058 18.3359 39.1822 18.2676 39.1011 18.1617C39.0199 18.0557 38.9887 17.9217 39.015 17.7924L39.5879 14.9888C38.5886 15.7179 36.995 16.5723 35.101 16.4737C31.9298 16.3087 30.4474 14.3469 29.7855 13.0486C29.1511 14.3056 27.7773 16.1179 25.149 16.1318C23.0788 16.143 21.2781 14.99 20.0329 13.8853L21.3728 17.9107C21.4205 18.0542 21.3941 18.2105 21.3017 18.3312C21.2096 18.4519 21.0625 18.5221 20.9068 18.52L19.7398 18.5041C19.5337 18.5012 19.3515 18.3727 19.286 18.1837L15.2317 6.51723C15.1544 6.29455 15.2598 6.05146 15.4782 5.94922C15.6966 5.84674 15.9604 5.91713 16.0945 6.11324C16.0945 6.11324 18.82 10.1051 21.758 12.4062C22.9278 13.3224 24.1173 13.9862 25.1747 13.9109C26.662 13.8049 27.606 12.675 28.2388 11.3976C29.2643 9.32707 29.4601 6.8161 29.4601 6.8161Z" fill="#1B3700"/>
</svg>
