<svg width="282" height="77" viewBox="0 0 282 77" fill="none" xmlns="http://www.w3.org/2000/svg">
<path d="M49.5335 33.6957H48.8895C48.4105 31.1011 46.7167 28.9053 44.6304 27.1083C42.5442 25.3062 40.1439 23.9888 37.435 23.1609C34.7261 22.3331 32.1981 21.9191 29.8405 21.9191C26.6259 21.9191 23.6083 22.5601 20.7877 23.8473C17.967 25.1295 15.5295 26.9417 13.4805 29.2839C11.4315 31.6261 9.83489 34.4327 8.69597 37.7087C7.55705 40.9898 6.9876 44.5486 6.9876 48.39C6.9876 52.1102 7.53577 55.5579 8.63743 58.738C9.73909 61.9232 11.3464 64.6844 13.4592 67.0215C15.5721 69.3637 18.0255 71.1355 20.8089 72.3318C23.5924 73.5332 26.6792 74.1339 30.0693 74.1339C32.906 74.1339 36.0194 73.5887 39.4095 72.4984C42.7996 71.403 46.0681 69.3828 48.7983 66.8387V68.8882C45.4348 71.3616 42.1503 73.3767 39.351 74.5326C36.5569 75.6836 33.0709 76.2591 28.8931 76.2591C24.4918 76.2591 20.4737 75.4968 16.8387 73.9724C13.2091 72.4479 10.1383 70.3884 7.63157 67.7988C5.12489 65.2043 3.23023 62.2866 1.93697 59.0459C0.649037 55.8052 -0.000244141 52.4686 -0.000244141 49.0361C-0.000244141 43.8721 1.34091 39.0767 4.02854 34.6498C6.71085 30.2228 10.3405 26.7146 14.9228 24.1351C19.505 21.5557 24.4758 20.2634 29.8405 20.2634C33.1561 20.2634 36.6899 20.7329 40.4366 21.6667L44.3856 22.7116C45.1413 22.858 45.7906 22.9287 46.3175 22.9287C47.3074 22.9287 47.9673 22.7924 48.292 22.5148C48.622 22.2371 48.8774 21.7424 49.0531 21.0206H49.6598L49.5335 33.6957Z" fill="#1B3700"/>
<path d="M27.5003 50.1295L25.973 50.0889C25.973 50.0889 25.2821 57.7662 25.2457 59.7973C25.2094 60.6503 25.3912 61.7471 25.6821 62.3158C25.973 62.8439 26.3367 63.2095 26.7731 63.3719C27.2094 63.4938 27.7549 63.6157 28.4822 63.6157V64.1437H16.191V63.575C17.5729 63.575 18.4456 63.2501 18.8456 62.5595C19.2093 61.869 19.3184 60.7316 19.4275 59.7973C19.7911 56.6289 20.9911 43.3864 20.9911 43.3864C20.9184 40.7867 20.3002 42.4928 18.3365 41.9647C16.4092 41.4773 14.8819 39.1619 15.6092 36.7246C16.7001 33.1906 20.4093 32.2563 20.7002 32.5813C21.3911 33.5156 20.882 33.6374 20.882 33.6374C16.591 34.9373 16.7365 39.1212 19.682 38.6338C21.9366 38.2682 25.7548 35.5466 28.8822 34.6529C32.4823 33.6374 37.2823 33.4343 39.1733 37.7401C39.7188 38.9994 40.046 40.6242 40.046 42.0866C40.046 43.2646 39.8278 44.3207 39.3551 45.255C38.9187 46.1893 38.3005 46.9205 37.5369 47.5298C36.7732 48.1391 35.9369 48.5859 34.9914 48.9109C36.2278 49.7639 37.3914 51.2669 38.5551 53.4604L41.6824 59.3911C42.1915 60.4066 42.737 61.1784 43.137 61.7471C43.5734 62.3158 44.0098 62.9657 44.337 63.1688C44.6279 63.4126 45.0643 63.4532 45.4643 63.5344V64.1844H37.1733C36.3369 62.5189 35.5732 60.8534 35.1369 59.8785C33.755 56.832 32.7368 54.6791 32.0822 53.501C31.464 52.323 30.7731 51.47 30.1186 50.9419C29.4276 50.4139 28.5549 50.1295 27.5003 50.1295ZM32.3004 38.3901C30.4822 37.8214 26.5912 39.9337 26.5912 39.9337L26.0821 48.5047C26.0821 48.5047 29.864 48.3422 31.1368 47.7329C31.7913 47.4079 35.2823 46.2705 34.9187 42.2897C34.7005 39.5275 33.6459 38.7963 32.3004 38.3901Z" fill="#1B3700"/>
<path d="M43.6596 5.66979C42.5648 5.65257 41.6887 4.7643 41.7028 3.68577C41.717 2.60725 42.616 1.74689 43.7109 1.76411C44.8057 1.78133 45.6818 2.6696 45.6677 3.74813C45.6535 4.82665 44.7545 5.68701 43.6596 5.66979Z" fill="#1B3700"/>
<path d="M29.7665 4.15862C28.6716 4.1414 27.7955 3.25313 27.8097 2.1746C27.8239 1.09608 28.7229 0.23572 29.8178 0.25294C30.9126 0.270159 31.7887 1.15843 31.7746 2.23696C31.7604 3.31548 30.8614 4.17584 29.7665 4.15862Z" fill="#1B3700"/>
<path d="M15.1494 4.19272C14.0545 4.1755 13.1784 3.28722 13.1926 2.2087C13.2067 1.13017 14.1058 0.269817 15.2006 0.287037C16.2955 0.304256 17.1716 1.19253 17.1574 2.27106C17.1433 3.34958 16.2442 4.20994 15.1494 4.19272Z" fill="#1B3700"/>
<path fill-rule="evenodd" clip-rule="evenodd" d="M29.4601 6.81614C29.4793 6.57069 29.6927 6.38236 29.9478 6.38588C30.203 6.38917 30.4123 6.58336 30.4262 6.82952C30.4262 6.82952 30.5757 9.51593 31.6991 11.6959C32.3977 13.0513 33.4775 14.2248 35.2084 14.2789C36.7851 14.328 38.1429 13.4776 39.2503 12.3963C41.0035 10.6843 42.1333 8.37072 42.4569 7.6872C42.525 7.54348 42.567 7.4581 42.5772 7.4415C42.6896 7.25888 42.8395 7.23419 42.8797 7.2247C43.0604 7.18246 43.2069 7.22916 43.3274 7.33373C43.3912 7.38897 43.5015 7.50872 43.4968 7.73117C43.4909 8.00508 42.9883 9.53002 42.7617 10.3155C42.2859 11.9645 40.9632 18.0826 40.9632 18.0826C40.9126 18.3167 40.6871 18.4754 40.4407 18.4505L39.4414 18.3497C39.3058 18.3359 39.1822 18.2676 39.1011 18.1617C39.0199 18.0557 38.9887 17.9217 39.015 17.7924L39.5879 14.9888C38.5886 15.7179 36.995 16.5723 35.101 16.4737C31.9298 16.3087 30.4474 14.3469 29.7855 13.0486C29.1511 14.3056 27.7773 16.1179 25.149 16.1318C23.0788 16.143 21.2781 14.99 20.0329 13.8853L21.3728 17.9107C21.4205 18.0542 21.3941 18.2105 21.3017 18.3312C21.2096 18.4519 21.0625 18.5221 20.9068 18.52L19.7398 18.5041C19.5337 18.5012 19.3515 18.3727 19.286 18.1837L15.2317 6.51727C15.1544 6.29459 15.2598 6.0515 15.4782 5.94926C15.6966 5.84678 15.9604 5.91717 16.0945 6.11328C16.0945 6.11328 18.82 10.1051 21.758 12.4062C22.9278 13.3224 24.1173 13.9862 25.1747 13.9109C26.662 13.8049 27.606 12.675 28.2388 11.3976C29.2643 9.32711 29.4601 6.81614 29.4601 6.81614Z" fill="#1B3700"/>
<path d="M78.0398 64.7727C77.9064 64.586 77.7198 64.4527 77.4798 64.3727C77.2398 64.2927 76.9064 64.2527 76.4798 64.2527H62.0398L61.5998 63.0927L62.3998 62.8927C63.2798 62.626 63.8664 62.2927 64.1598 61.8927C64.4531 61.466 64.5998 60.7327 64.5998 59.6927V43.0527C64.5998 41.9327 64.4398 41.1594 64.1198 40.7327C63.8264 40.2794 63.2264 39.9327 62.3198 39.6927L61.4398 39.4927L61.8798 38.2527H69.8398L70.3198 38.8127L69.8398 39.4927C69.2264 40.266 68.7998 41.106 68.5598 42.0127C68.3198 42.8927 68.1998 44.0527 68.1998 45.4927V59.4527C68.1998 60.226 68.2531 60.8127 68.3598 61.2127C68.4931 61.586 68.7198 61.8394 69.0398 61.9727C69.3598 62.106 69.8531 62.1727 70.5198 62.1727H73.6798C74.9331 62.1727 75.8131 61.9594 76.3198 61.5327C76.8531 61.106 77.2798 60.2527 77.5998 58.9727L77.7998 58.1727L79.0798 58.5327V64.7727L78.3198 65.1327L78.0398 64.7727ZM87.2426 64.7727C86.0692 64.7727 84.9759 64.4394 83.9626 63.7727C82.9759 63.0794 82.1759 62.0794 81.5626 60.7727C80.9759 59.4394 80.6826 57.826 80.6826 55.9327C80.6826 52.8127 81.5226 50.346 83.2026 48.5327C84.9092 46.7194 87.2026 45.8127 90.0826 45.8127C91.0426 45.8127 92.3492 45.9594 94.0026 46.2527C95.2292 46.466 96.3359 46.6127 97.3226 46.6927L97.8026 47.1327L97.2826 47.8127C97.0959 48.1327 96.9626 48.386 96.8826 48.5727C96.8292 48.7327 96.8026 48.9594 96.8026 49.2527V61.0527C96.8026 61.7994 97.1892 62.1727 97.9626 62.1727C98.5492 62.1727 99.1492 61.9594 99.7626 61.5327L100.443 62.4527C99.8026 63.1727 99.1226 63.746 98.4026 64.1727C97.6826 64.5727 97.0292 64.7727 96.4426 64.7727C95.4292 64.7727 94.6959 64.4794 94.2426 63.8927C93.7892 63.2794 93.5626 62.2927 93.5626 60.9327C92.6026 62.346 91.6026 63.346 90.5626 63.9327C89.5492 64.4927 88.4426 64.7727 87.2426 64.7727ZM88.6426 61.9327C90.6692 61.9327 92.3092 60.8394 93.5626 58.6527V48.8527C92.5226 48.1594 91.3492 47.8127 90.0426 47.8127C88.3092 47.8127 86.9492 48.466 85.9626 49.7727C85.0026 51.0527 84.5226 52.8794 84.5226 55.2527C84.5226 57.546 84.9092 59.2394 85.6826 60.3327C86.4826 61.3994 87.4692 61.9327 88.6426 61.9327ZM124.502 64.7727C121.996 64.7727 119.876 64.186 118.142 63.0127C116.409 61.8127 115.102 60.1994 114.222 58.1727C113.369 56.1194 112.942 53.826 112.942 51.2927C112.942 48.706 113.369 46.3994 114.222 44.3727C115.102 42.3194 116.409 40.706 118.142 39.5327C119.902 38.3327 122.062 37.7327 124.622 37.7327C126.196 37.7327 127.596 37.9594 128.822 38.4127C130.049 38.866 131.009 39.4927 131.702 40.2927C132.396 41.0927 132.742 42.0127 132.742 43.0527C132.742 44.2794 132.382 45.2927 131.662 46.0927C130.942 46.866 130.036 47.2527 128.942 47.2527C128.382 47.2527 128.102 47.106 128.102 46.8127C128.102 46.7594 128.209 46.5727 128.422 46.2527C128.636 45.906 128.822 45.5194 128.982 45.0927C129.142 44.6394 129.222 44.1194 129.222 43.5327C129.222 42.4127 128.796 41.506 127.942 40.8127C127.116 40.0927 126.009 39.7327 124.622 39.7327C122.836 39.7327 121.369 40.2927 120.222 41.4127C119.102 42.5327 118.289 43.9727 117.782 45.7327C117.276 47.466 117.022 49.3194 117.022 51.2927C117.022 53.2927 117.342 55.1327 117.982 56.8127C118.622 58.4927 119.529 59.826 120.702 60.8127C121.902 61.7727 123.276 62.2527 124.822 62.2527C126.369 62.2527 127.716 61.9727 128.862 61.4127C130.036 60.826 130.969 60.026 131.662 59.0127C131.742 58.906 131.822 58.8527 131.902 58.8527C132.142 58.8527 132.396 58.9727 132.662 59.2127C132.929 59.426 133.062 59.6527 133.062 59.8927C133.062 59.9727 133.036 60.066 132.982 60.1727C130.849 63.2394 128.022 64.7727 124.502 64.7727ZM151.566 64.8527C150.579 64.8527 149.873 64.546 149.446 63.9327C149.019 63.3194 148.806 62.3327 148.806 60.9727V52.3727C148.806 51.1194 148.553 50.1727 148.046 49.5327C147.566 48.8927 146.779 48.5727 145.686 48.5727C144.646 48.5727 143.726 48.986 142.926 49.8127C142.126 50.6394 141.499 51.7994 141.046 53.2927C140.619 54.786 140.406 56.506 140.406 58.4527C140.406 59.5727 140.486 60.4794 140.646 61.1727C140.833 61.866 141.153 62.5194 141.606 63.1327L142.046 63.6927L141.606 64.2527H135.246L134.806 63.1327L135.606 62.9327C136.219 62.826 136.619 62.586 136.806 62.2127C137.019 61.8127 137.126 61.146 137.126 60.2127V39.8127C137.126 39.5194 137.073 39.3194 136.966 39.2127C136.859 39.0794 136.673 39.0127 136.406 39.0127H134.766L134.486 38.0927C135.179 37.4527 135.966 36.9327 136.846 36.5327C137.753 36.106 138.539 35.8927 139.206 35.8927C139.553 35.8927 139.833 35.9994 140.046 36.2127C140.286 36.426 140.406 36.706 140.406 37.0527V51.2127C141.019 49.6394 141.966 48.346 143.246 47.3327C144.526 46.3194 145.859 45.8127 147.246 45.8127C149.006 45.8127 150.246 46.3327 150.966 47.3727C151.713 48.386 152.086 50.0527 152.086 52.3727V61.1327C152.086 61.9594 152.433 62.3727 153.126 62.3727C153.686 62.3727 154.286 62.1327 154.926 61.6527L155.686 62.5327C155.019 63.2527 154.313 63.826 153.566 64.2527C152.846 64.6527 152.179 64.8527 151.566 64.8527ZM161.051 42.7727C160.651 42.7727 160.184 42.4927 159.651 41.9327C159.118 41.3727 158.851 40.866 158.851 40.4127C158.851 39.9594 159.104 39.4527 159.611 38.8927C160.144 38.3327 160.624 38.0527 161.051 38.0527C161.504 38.0527 161.998 38.3327 162.531 38.8927C163.064 39.4527 163.331 39.9594 163.331 40.4127C163.331 40.866 163.064 41.3727 162.531 41.9327C161.998 42.4927 161.504 42.7727 161.051 42.7727ZM162.251 64.7727C161.264 64.7727 160.544 64.4794 160.091 63.8927C159.664 63.2794 159.451 62.2927 159.451 60.9327V49.7327C159.451 49.4127 159.398 49.186 159.291 49.0527C159.184 48.9194 158.998 48.8527 158.731 48.8527H157.091L156.811 47.9727C157.504 47.3327 158.291 46.8127 159.171 46.4127C160.078 46.0127 160.864 45.8127 161.531 45.8127C161.878 45.8127 162.158 45.9194 162.371 46.1327C162.611 46.3194 162.731 46.5727 162.731 46.8927V61.0527C162.731 61.8794 163.091 62.2927 163.811 62.2927C164.371 62.2927 164.984 62.0394 165.651 61.5327L166.331 62.4527C165.664 63.146 164.958 63.706 164.211 64.1327C163.491 64.5594 162.838 64.7727 162.251 64.7727ZM184.54 64.7727C183.553 64.7727 182.847 64.4794 182.42 63.8927C181.993 63.2794 181.78 62.2927 181.78 60.9327V52.2927C181.78 51.066 181.513 50.146 180.98 49.5327C180.447 48.8927 179.66 48.5727 178.62 48.5727C177.58 48.5727 176.66 48.986 175.86 49.8127C175.087 50.6394 174.487 51.7994 174.06 53.2927C173.633 54.786 173.42 56.506 173.42 58.4527C173.42 59.5727 173.5 60.4794 173.66 61.1727C173.847 61.866 174.153 62.5194 174.58 63.1327L175.02 63.6927L174.58 64.2527H168.22L167.86 63.1327L168.54 62.9327C169.18 62.826 169.593 62.586 169.78 62.2127C169.993 61.8127 170.1 61.146 170.1 60.2127V50.0527C170.1 49.7594 170.047 49.5594 169.94 49.4527C169.833 49.3194 169.647 49.2527 169.38 49.2527H167.82L167.46 48.2927C168.153 47.6527 168.953 47.1327 169.86 46.7327C170.767 46.3327 171.567 46.1327 172.26 46.1327C172.607 46.1327 172.887 46.2394 173.1 46.4527C173.313 46.666 173.42 46.9327 173.42 47.2527V51.2127C174.033 49.6394 174.967 48.346 176.22 47.3327C177.473 46.3194 178.793 45.8127 180.18 45.8127C181.86 45.8127 183.087 46.3327 183.86 47.3727C184.66 48.4127 185.06 50.0527 185.06 52.2927V61.0527C185.06 61.8794 185.42 62.2927 186.14 62.2927C186.727 62.2927 187.327 62.0394 187.94 61.5327L188.62 62.4527C188.007 63.146 187.327 63.706 186.58 64.1327C185.833 64.5594 185.153 64.7727 184.54 64.7727ZM196.661 64.7727C195.488 64.7727 194.395 64.4394 193.381 63.7727C192.395 63.0794 191.595 62.0794 190.981 60.7727C190.395 59.4394 190.101 57.826 190.101 55.9327C190.101 52.8127 190.941 50.346 192.621 48.5327C194.328 46.7194 196.621 45.8127 199.501 45.8127C200.461 45.8127 201.768 45.9594 203.421 46.2527C204.648 46.466 205.755 46.6127 206.741 46.6927L207.221 47.1327L206.701 47.8127C206.515 48.1327 206.381 48.386 206.301 48.5727C206.248 48.7327 206.221 48.9594 206.221 49.2527V61.0527C206.221 61.7994 206.608 62.1727 207.381 62.1727C207.968 62.1727 208.568 61.9594 209.181 61.5327L209.861 62.4527C209.221 63.1727 208.541 63.746 207.821 64.1727C207.101 64.5727 206.448 64.7727 205.861 64.7727C204.848 64.7727 204.115 64.4794 203.661 63.8927C203.208 63.2794 202.981 62.2927 202.981 60.9327C202.021 62.346 201.021 63.346 199.981 63.9327C198.968 64.4927 197.861 64.7727 196.661 64.7727ZM198.061 61.9327C200.088 61.9327 201.728 60.8394 202.981 58.6527V48.8527C201.941 48.1594 200.768 47.8127 199.461 47.8127C197.728 47.8127 196.368 48.466 195.381 49.7727C194.421 51.0527 193.941 52.8794 193.941 55.2527C193.941 57.546 194.328 59.2394 195.101 60.3327C195.901 61.3994 196.888 61.9327 198.061 61.9327ZM219.937 64.7727C218.257 64.7727 216.751 64.3594 215.417 63.5327C214.084 62.706 213.031 61.5727 212.257 60.1327C211.511 58.6927 211.137 57.0794 211.137 55.2927C211.137 53.3727 211.497 51.706 212.217 50.2927C212.937 48.8527 213.964 47.746 215.297 46.9727C216.631 46.1994 218.177 45.8127 219.937 45.8127C221.804 45.8127 223.324 46.266 224.497 47.1727C225.697 48.0527 226.297 49.1994 226.297 50.6127C226.297 51.6527 225.964 52.506 225.297 53.1727C224.631 53.8127 223.777 54.1327 222.737 54.1327C222.497 54.1327 222.324 54.106 222.217 54.0527C222.111 53.9994 222.057 53.906 222.057 53.7727C222.057 53.6927 222.137 53.5194 222.297 53.2527C222.484 52.986 222.644 52.666 222.777 52.2927C222.911 51.8927 222.977 51.386 222.977 50.7727C222.977 49.8127 222.657 49.066 222.017 48.5327C221.404 47.9727 220.577 47.6927 219.537 47.6927C218.151 47.6927 217.031 48.3727 216.177 49.7327C215.351 51.066 214.937 52.8394 214.937 55.0527C214.937 57.2927 215.431 59.066 216.417 60.3727C217.431 61.6794 218.791 62.3327 220.497 62.3327C221.377 62.3327 222.204 62.186 222.977 61.8927C223.751 61.5994 224.524 61.1327 225.297 60.4927C225.351 60.4394 225.457 60.4127 225.617 60.4127C225.831 60.4127 226.031 60.5327 226.217 60.7727C226.431 60.986 226.537 61.2127 226.537 61.4527C226.537 61.6394 226.511 61.7327 226.457 61.7327C225.604 62.7194 224.604 63.4794 223.457 64.0127C222.337 64.5194 221.164 64.7727 219.937 64.7727ZM235.296 64.7727C234.122 64.7727 233.029 64.4394 232.016 63.7727C231.029 63.0794 230.229 62.0794 229.616 60.7727C229.029 59.4394 228.736 57.826 228.736 55.9327C228.736 52.8127 229.576 50.346 231.256 48.5327C232.962 46.7194 235.256 45.8127 238.136 45.8127C239.096 45.8127 240.402 45.9594 242.056 46.2527C243.282 46.466 244.389 46.6127 245.376 46.6927L245.856 47.1327L245.336 47.8127C245.149 48.1327 245.016 48.386 244.936 48.5727C244.882 48.7327 244.856 48.9594 244.856 49.2527V61.0527C244.856 61.7994 245.242 62.1727 246.016 62.1727C246.602 62.1727 247.202 61.9594 247.816 61.5327L248.496 62.4527C247.856 63.1727 247.176 63.746 246.456 64.1727C245.736 64.5727 245.082 64.7727 244.496 64.7727C243.482 64.7727 242.749 64.4794 242.296 63.8927C241.842 63.2794 241.616 62.2927 241.616 60.9327C240.656 62.346 239.656 63.346 238.616 63.9327C237.602 64.4927 236.496 64.7727 235.296 64.7727ZM236.696 61.9327C238.722 61.9327 240.362 60.8394 241.616 58.6527V48.8527C240.576 48.1594 239.402 47.8127 238.096 47.8127C236.362 47.8127 235.002 48.466 234.016 49.7727C233.056 51.0527 232.576 52.8794 232.576 55.2527C232.576 57.546 232.962 59.2394 233.736 60.3327C234.536 61.3994 235.522 61.9327 236.696 61.9327ZM254.892 64.7727C253.905 64.7727 253.132 64.466 252.572 63.8527C252.012 63.2127 251.732 62.346 251.732 61.2527V48.4927H248.572C248.572 47.8527 248.625 47.4394 248.732 47.2527C248.838 47.0394 249.078 46.8794 249.452 46.7727C250.732 46.4527 251.638 45.9194 252.172 45.1727C252.705 44.426 253.105 43.4394 253.372 42.2127C253.425 41.8394 253.545 41.6127 253.732 41.5327C253.945 41.426 254.398 41.3727 255.092 41.3727V46.2527H259.772C259.772 46.7594 259.692 47.2127 259.532 47.6127C259.398 48.0127 259.212 48.306 258.972 48.4927H255.092V60.2127C255.092 60.9594 255.185 61.4927 255.372 61.8127C255.585 62.106 255.945 62.2527 256.452 62.2527C257.172 62.2527 257.985 61.866 258.892 61.0927L259.572 62.0527C258.958 62.8527 258.212 63.506 257.332 64.0127C256.452 64.5194 255.638 64.7727 254.892 64.7727ZM267.836 64.7727C266.663 64.7727 265.57 64.4394 264.556 63.7727C263.57 63.0794 262.77 62.0794 262.156 60.7727C261.57 59.4394 261.276 57.826 261.276 55.9327C261.276 52.8127 262.116 50.346 263.796 48.5327C265.503 46.7194 267.796 45.8127 270.676 45.8127C271.636 45.8127 272.943 45.9594 274.596 46.2527C275.823 46.466 276.93 46.6127 277.916 46.6927L278.396 47.1327L277.876 47.8127C277.69 48.1327 277.556 48.386 277.476 48.5727C277.423 48.7327 277.396 48.9594 277.396 49.2527V61.0527C277.396 61.7994 277.783 62.1727 278.556 62.1727C279.143 62.1727 279.743 61.9594 280.356 61.5327L281.036 62.4527C280.396 63.1727 279.716 63.746 278.996 64.1727C278.276 64.5727 277.623 64.7727 277.036 64.7727C276.023 64.7727 275.29 64.4794 274.836 63.8927C274.383 63.2794 274.156 62.2927 274.156 60.9327C273.196 62.346 272.196 63.346 271.156 63.9327C270.143 64.4927 269.036 64.7727 267.836 64.7727ZM269.236 61.9327C271.263 61.9327 272.903 60.8394 274.156 58.6527V48.8527C273.116 48.1594 271.943 47.8127 270.636 47.8127C268.903 47.8127 267.543 48.466 266.556 49.7727C265.596 51.0527 265.116 52.8794 265.116 55.2527C265.116 57.546 265.503 59.2394 266.276 60.3327C267.076 61.3994 268.063 61.9327 269.236 61.9327Z" fill="#1B3700"/>
</svg>
